<mxfile host="app.diagrams.net" modified="2024-06-25T07:18:33.273Z" agent="Mozilla/5.0 (X11; Linux x86_64) AppleWebKit/537.36 (KHTML, like Gecko) Chrome/122.0.0.0 YaBrowser/24.4.0.0 Safari/537.36" version="24.6.2" etag="bmFZGKoTHJCTxq5-R9RA" type="github">
  <diagram name="Страница — 1" id="rpQlB8KUyZhx10WdsvbN">
    <mxGraphModel>
      <root>
        <mxCell id="0" />
        <mxCell id="1" parent="0" />
      </root>
    </mxGraphModel>
  </diagram>
</mxfile>
